<mxfile host="app.diagrams.net" modified="2023-10-16T18:56:12.100Z" agent="Mozilla/5.0 (Windows NT 10.0; Win64; x64) AppleWebKit/537.36 (KHTML, like Gecko) Chrome/118.0.0.0 Safari/537.36" etag="NBmsggBDPNrWOwvPOU2c" version="22.0.4" type="device">
  <diagram id="C5RBs43oDa-KdzZeNtuy" name="Page-1">
    <mxGraphModel dx="712" dy="782" grid="1" gridSize="10" guides="1" tooltips="1" connect="1" arrows="1" fold="1" page="1" pageScale="1" pageWidth="827" pageHeight="1169" math="0" shadow="0">
      <root>
        <mxCell id="WIyWlLk6GJQsqaUBKTNV-0" />
        <mxCell id="WIyWlLk6GJQsqaUBKTNV-1" parent="WIyWlLk6GJQsqaUBKTNV-0" />
        <mxCell id="WIyWlLk6GJQsqaUBKTNV-2" value="" style="rounded=0;html=1;jettySize=auto;orthogonalLoop=1;fontSize=11;endArrow=block;endFill=0;endSize=8;strokeWidth=1;shadow=0;labelBackgroundColor=none;edgeStyle=orthogonalEdgeStyle;" parent="WIyWlLk6GJQsqaUBKTNV-1" source="WIyWlLk6GJQsqaUBKTNV-3" target="-D1GQXt4WGmWLV9wI5nG-0" edge="1">
          <mxGeometry relative="1" as="geometry">
            <mxPoint x="220" y="170" as="targetPoint" />
          </mxGeometry>
        </mxCell>
        <mxCell id="WIyWlLk6GJQsqaUBKTNV-3" value="Start" style="rounded=1;whiteSpace=wrap;html=1;fontSize=12;glass=0;strokeWidth=1;shadow=0;" parent="WIyWlLk6GJQsqaUBKTNV-1" vertex="1">
          <mxGeometry x="160" y="80" width="120" height="40" as="geometry" />
        </mxCell>
        <mxCell id="-D1GQXt4WGmWLV9wI5nG-2" style="edgeStyle=orthogonalEdgeStyle;rounded=0;orthogonalLoop=1;jettySize=auto;html=1;exitX=0.5;exitY=1;exitDx=0;exitDy=0;" edge="1" parent="WIyWlLk6GJQsqaUBKTNV-1" source="-D1GQXt4WGmWLV9wI5nG-0" target="-D1GQXt4WGmWLV9wI5nG-1">
          <mxGeometry relative="1" as="geometry" />
        </mxCell>
        <mxCell id="-D1GQXt4WGmWLV9wI5nG-0" value="Initialize lists" style="rounded=1;whiteSpace=wrap;html=1;" vertex="1" parent="WIyWlLk6GJQsqaUBKTNV-1">
          <mxGeometry x="170" y="160" width="100" height="40" as="geometry" />
        </mxCell>
        <mxCell id="-D1GQXt4WGmWLV9wI5nG-3" style="edgeStyle=orthogonalEdgeStyle;rounded=0;orthogonalLoop=1;jettySize=auto;html=1;exitX=0.5;exitY=1;exitDx=0;exitDy=0;" edge="1" parent="WIyWlLk6GJQsqaUBKTNV-1" source="-D1GQXt4WGmWLV9wI5nG-1" target="-D1GQXt4WGmWLV9wI5nG-4">
          <mxGeometry relative="1" as="geometry">
            <mxPoint x="220" y="300" as="targetPoint" />
          </mxGeometry>
        </mxCell>
        <mxCell id="-D1GQXt4WGmWLV9wI5nG-1" value="For each frame in frames" style="rounded=1;whiteSpace=wrap;html=1;" vertex="1" parent="WIyWlLk6GJQsqaUBKTNV-1">
          <mxGeometry x="160" y="230" width="120" height="30" as="geometry" />
        </mxCell>
        <mxCell id="-D1GQXt4WGmWLV9wI5nG-6" style="edgeStyle=orthogonalEdgeStyle;rounded=0;orthogonalLoop=1;jettySize=auto;html=1;exitX=0.5;exitY=1;exitDx=0;exitDy=0;" edge="1" parent="WIyWlLk6GJQsqaUBKTNV-1" source="-D1GQXt4WGmWLV9wI5nG-4" target="-D1GQXt4WGmWLV9wI5nG-5">
          <mxGeometry relative="1" as="geometry" />
        </mxCell>
        <mxCell id="-D1GQXt4WGmWLV9wI5nG-4" value="Get Opcode" style="rounded=0;whiteSpace=wrap;html=1;" vertex="1" parent="WIyWlLk6GJQsqaUBKTNV-1">
          <mxGeometry x="185" y="300" width="70" height="20" as="geometry" />
        </mxCell>
        <mxCell id="-D1GQXt4WGmWLV9wI5nG-7" style="edgeStyle=orthogonalEdgeStyle;rounded=0;orthogonalLoop=1;jettySize=auto;html=1;exitX=1;exitY=0.5;exitDx=0;exitDy=0;" edge="1" parent="WIyWlLk6GJQsqaUBKTNV-1" source="-D1GQXt4WGmWLV9wI5nG-5" target="-D1GQXt4WGmWLV9wI5nG-8">
          <mxGeometry relative="1" as="geometry">
            <mxPoint x="360" y="420" as="targetPoint" />
          </mxGeometry>
        </mxCell>
        <mxCell id="-D1GQXt4WGmWLV9wI5nG-13" value="yes" style="edgeLabel;html=1;align=center;verticalAlign=middle;resizable=0;points=[];" vertex="1" connectable="0" parent="-D1GQXt4WGmWLV9wI5nG-7">
          <mxGeometry x="-0.2727" y="-3" relative="1" as="geometry">
            <mxPoint as="offset" />
          </mxGeometry>
        </mxCell>
        <mxCell id="-D1GQXt4WGmWLV9wI5nG-18" style="edgeStyle=orthogonalEdgeStyle;rounded=0;orthogonalLoop=1;jettySize=auto;html=1;exitX=0.5;exitY=1;exitDx=0;exitDy=0;" edge="1" parent="WIyWlLk6GJQsqaUBKTNV-1" source="-D1GQXt4WGmWLV9wI5nG-5" target="-D1GQXt4WGmWLV9wI5nG-19">
          <mxGeometry relative="1" as="geometry">
            <mxPoint x="220" y="520" as="targetPoint" />
          </mxGeometry>
        </mxCell>
        <mxCell id="-D1GQXt4WGmWLV9wI5nG-5" value="is opcode in [1,2] and len of buffer &amp;gt; 1 ?" style="rhombus;whiteSpace=wrap;html=1;" vertex="1" parent="WIyWlLk6GJQsqaUBKTNV-1">
          <mxGeometry x="165" y="370" width="110" height="100" as="geometry" />
        </mxCell>
        <mxCell id="-D1GQXt4WGmWLV9wI5nG-9" style="edgeStyle=orthogonalEdgeStyle;rounded=0;orthogonalLoop=1;jettySize=auto;html=1;exitX=0.5;exitY=1;exitDx=0;exitDy=0;" edge="1" parent="WIyWlLk6GJQsqaUBKTNV-1" source="-D1GQXt4WGmWLV9wI5nG-8" target="-D1GQXt4WGmWLV9wI5nG-10">
          <mxGeometry relative="1" as="geometry">
            <mxPoint x="390" y="500" as="targetPoint" />
          </mxGeometry>
        </mxCell>
        <mxCell id="-D1GQXt4WGmWLV9wI5nG-8" value="Fetch second last frame from buffer into last_frame" style="rounded=1;whiteSpace=wrap;html=1;" vertex="1" parent="WIyWlLk6GJQsqaUBKTNV-1">
          <mxGeometry x="330" y="390" width="120" height="60" as="geometry" />
        </mxCell>
        <mxCell id="-D1GQXt4WGmWLV9wI5nG-11" style="edgeStyle=orthogonalEdgeStyle;rounded=0;orthogonalLoop=1;jettySize=auto;html=1;exitX=1;exitY=0.5;exitDx=0;exitDy=0;" edge="1" parent="WIyWlLk6GJQsqaUBKTNV-1" source="-D1GQXt4WGmWLV9wI5nG-10" target="-D1GQXt4WGmWLV9wI5nG-12">
          <mxGeometry relative="1" as="geometry">
            <mxPoint x="490" y="540" as="targetPoint" />
          </mxGeometry>
        </mxCell>
        <mxCell id="-D1GQXt4WGmWLV9wI5nG-14" value="yes" style="edgeLabel;html=1;align=center;verticalAlign=middle;resizable=0;points=[];" vertex="1" connectable="0" parent="-D1GQXt4WGmWLV9wI5nG-11">
          <mxGeometry x="-0.0182" y="1" relative="1" as="geometry">
            <mxPoint as="offset" />
          </mxGeometry>
        </mxCell>
        <mxCell id="-D1GQXt4WGmWLV9wI5nG-15" style="edgeStyle=orthogonalEdgeStyle;rounded=0;orthogonalLoop=1;jettySize=auto;html=1;exitX=0.5;exitY=1;exitDx=0;exitDy=0;" edge="1" parent="WIyWlLk6GJQsqaUBKTNV-1" source="-D1GQXt4WGmWLV9wI5nG-10" target="-D1GQXt4WGmWLV9wI5nG-16">
          <mxGeometry relative="1" as="geometry">
            <mxPoint x="390" y="640" as="targetPoint" />
          </mxGeometry>
        </mxCell>
        <mxCell id="-D1GQXt4WGmWLV9wI5nG-17" value="No" style="edgeLabel;html=1;align=center;verticalAlign=middle;resizable=0;points=[];" vertex="1" connectable="0" parent="-D1GQXt4WGmWLV9wI5nG-15">
          <mxGeometry x="-0.4545" relative="1" as="geometry">
            <mxPoint as="offset" />
          </mxGeometry>
        </mxCell>
        <mxCell id="-D1GQXt4WGmWLV9wI5nG-10" value="Does last_frame have opcode 3 and len &amp;lt; 512 ?" style="rhombus;whiteSpace=wrap;html=1;" vertex="1" parent="WIyWlLk6GJQsqaUBKTNV-1">
          <mxGeometry x="345" y="495" width="90" height="90" as="geometry" />
        </mxCell>
        <mxCell id="-D1GQXt4WGmWLV9wI5nG-12" value="Add to complete_comms and reset buffer with the current frame" style="rounded=1;whiteSpace=wrap;html=1;" vertex="1" parent="WIyWlLk6GJQsqaUBKTNV-1">
          <mxGeometry x="490" y="510" width="120" height="60" as="geometry" />
        </mxCell>
        <mxCell id="-D1GQXt4WGmWLV9wI5nG-16" value="Add to partial_comms and reset buffer with current frame" style="rounded=1;whiteSpace=wrap;html=1;" vertex="1" parent="WIyWlLk6GJQsqaUBKTNV-1">
          <mxGeometry x="330" y="640" width="120" height="60" as="geometry" />
        </mxCell>
        <mxCell id="-D1GQXt4WGmWLV9wI5nG-20" style="edgeStyle=orthogonalEdgeStyle;rounded=0;orthogonalLoop=1;jettySize=auto;html=1;exitX=0.5;exitY=1;exitDx=0;exitDy=0;" edge="1" parent="WIyWlLk6GJQsqaUBKTNV-1" source="-D1GQXt4WGmWLV9wI5nG-19" target="-D1GQXt4WGmWLV9wI5nG-21">
          <mxGeometry relative="1" as="geometry">
            <mxPoint x="220" y="620" as="targetPoint" />
          </mxGeometry>
        </mxCell>
        <mxCell id="-D1GQXt4WGmWLV9wI5nG-19" value="Check for any remaining frames in buffer" style="rounded=1;whiteSpace=wrap;html=1;" vertex="1" parent="WIyWlLk6GJQsqaUBKTNV-1">
          <mxGeometry x="160" y="520" width="120" height="60" as="geometry" />
        </mxCell>
        <mxCell id="-D1GQXt4WGmWLV9wI5nG-23" style="edgeStyle=orthogonalEdgeStyle;rounded=0;orthogonalLoop=1;jettySize=auto;html=1;exitX=0.5;exitY=1;exitDx=0;exitDy=0;entryX=0.5;entryY=0;entryDx=0;entryDy=0;" edge="1" parent="WIyWlLk6GJQsqaUBKTNV-1" source="-D1GQXt4WGmWLV9wI5nG-21" target="-D1GQXt4WGmWLV9wI5nG-22">
          <mxGeometry relative="1" as="geometry" />
        </mxCell>
        <mxCell id="-D1GQXt4WGmWLV9wI5nG-21" value="Fetch the last frame from buffer into last_frame" style="rounded=1;whiteSpace=wrap;html=1;" vertex="1" parent="WIyWlLk6GJQsqaUBKTNV-1">
          <mxGeometry x="160" y="620" width="120" height="60" as="geometry" />
        </mxCell>
        <mxCell id="-D1GQXt4WGmWLV9wI5nG-24" style="edgeStyle=orthogonalEdgeStyle;rounded=0;orthogonalLoop=1;jettySize=auto;html=1;exitX=1;exitY=0.5;exitDx=0;exitDy=0;" edge="1" parent="WIyWlLk6GJQsqaUBKTNV-1" source="-D1GQXt4WGmWLV9wI5nG-22" target="-D1GQXt4WGmWLV9wI5nG-25">
          <mxGeometry relative="1" as="geometry">
            <mxPoint x="310" y="780" as="targetPoint" />
          </mxGeometry>
        </mxCell>
        <mxCell id="-D1GQXt4WGmWLV9wI5nG-26" style="edgeStyle=orthogonalEdgeStyle;rounded=0;orthogonalLoop=1;jettySize=auto;html=1;exitX=0.5;exitY=1;exitDx=0;exitDy=0;" edge="1" parent="WIyWlLk6GJQsqaUBKTNV-1" source="-D1GQXt4WGmWLV9wI5nG-22" target="-D1GQXt4WGmWLV9wI5nG-27">
          <mxGeometry relative="1" as="geometry">
            <mxPoint x="220" y="870" as="targetPoint" />
          </mxGeometry>
        </mxCell>
        <mxCell id="-D1GQXt4WGmWLV9wI5nG-22" value="Does Last_frame have opcode of 3 and len &amp;lt; 512" style="rhombus;whiteSpace=wrap;html=1;" vertex="1" parent="WIyWlLk6GJQsqaUBKTNV-1">
          <mxGeometry x="180" y="740" width="80" height="80" as="geometry" />
        </mxCell>
        <mxCell id="-D1GQXt4WGmWLV9wI5nG-29" style="edgeStyle=orthogonalEdgeStyle;rounded=0;orthogonalLoop=1;jettySize=auto;html=1;exitX=0.5;exitY=1;exitDx=0;exitDy=0;entryX=0.5;entryY=0;entryDx=0;entryDy=0;" edge="1" parent="WIyWlLk6GJQsqaUBKTNV-1" source="-D1GQXt4WGmWLV9wI5nG-25" target="-D1GQXt4WGmWLV9wI5nG-28">
          <mxGeometry relative="1" as="geometry" />
        </mxCell>
        <mxCell id="-D1GQXt4WGmWLV9wI5nG-25" value="Add to complete_comms" style="rounded=1;whiteSpace=wrap;html=1;" vertex="1" parent="WIyWlLk6GJQsqaUBKTNV-1">
          <mxGeometry x="320" y="750" width="120" height="60" as="geometry" />
        </mxCell>
        <mxCell id="-D1GQXt4WGmWLV9wI5nG-30" style="edgeStyle=orthogonalEdgeStyle;rounded=0;orthogonalLoop=1;jettySize=auto;html=1;exitX=0.5;exitY=1;exitDx=0;exitDy=0;entryX=0;entryY=0.5;entryDx=0;entryDy=0;" edge="1" parent="WIyWlLk6GJQsqaUBKTNV-1" source="-D1GQXt4WGmWLV9wI5nG-27" target="-D1GQXt4WGmWLV9wI5nG-28">
          <mxGeometry relative="1" as="geometry" />
        </mxCell>
        <mxCell id="-D1GQXt4WGmWLV9wI5nG-27" value="Add to partial_comms" style="rounded=1;whiteSpace=wrap;html=1;" vertex="1" parent="WIyWlLk6GJQsqaUBKTNV-1">
          <mxGeometry x="160" y="860" width="120" height="60" as="geometry" />
        </mxCell>
        <mxCell id="-D1GQXt4WGmWLV9wI5nG-28" value="Return complete_comms and partial_comms" style="rounded=1;whiteSpace=wrap;html=1;" vertex="1" parent="WIyWlLk6GJQsqaUBKTNV-1">
          <mxGeometry x="320" y="990" width="120" height="60" as="geometry" />
        </mxCell>
      </root>
    </mxGraphModel>
  </diagram>
</mxfile>
